<svg width="814" height="360" viewBox="0 0 814 360" fill="none" xmlns="http://www.w3.org/2000/svg">
<g clip-path="url(#clip0_2036_207746)">
<path fill-rule="evenodd" clip-rule="evenodd" d="M31.0762 225.239H217.145V276.925C217.145 294.053 203.262 307.937 186.134 307.937H62.0877C44.9606 307.937 31.0762 294.053 31.0762 276.925V225.239ZM82.7621 245.914C82.7621 240.204 87.3902 235.576 93.0992 235.576C98.8083 235.576 103.436 240.204 103.436 245.914V266.588C103.436 272.297 98.8083 276.925 93.0992 276.925C87.3902 276.925 82.7621 272.297 82.7621 266.588V245.914ZM155.122 235.576C149.413 235.576 144.785 240.204 144.785 245.914V266.588C144.785 272.297 149.413 276.925 155.122 276.925C160.832 276.925 165.459 272.297 165.459 266.588V245.914C165.459 240.204 160.832 235.576 155.122 235.576Z" fill="#F1A71A"/>
<path fill-rule="evenodd" clip-rule="evenodd" d="M217.149 214.922C226.347 187.329 248.161 151.107 248.161 121.887C248.161 96.1965 227.334 75.37 201.643 75.37C191.172 75.37 181.509 78.8301 173.734 84.6691C162.419 69.6069 144.404 59.8643 124.115 59.8643C103.825 59.8643 85.8105 69.6069 74.4948 84.6691C66.7204 78.83 57.0571 75.37 46.5857 75.37C20.8949 75.37 0.0683594 96.1965 0.0683594 121.887C0.0683594 151.107 21.8822 187.329 31.0799 214.922H67.2198L56.9627 132.866C56.6087 130.033 58.6178 127.45 61.4503 127.096C64.2828 126.742 66.8661 128.751 67.2201 131.583L77.5573 214.281C77.5842 214.496 77.5975 214.71 77.5977 214.922H118.946V132.225C118.946 129.37 121.26 127.056 124.115 127.056C126.969 127.056 129.283 129.37 129.283 132.225V214.922H170.631C170.632 214.71 170.645 214.496 170.672 214.281L181.009 131.583C181.363 128.751 183.946 126.742 186.778 127.096C189.611 127.45 191.62 130.033 191.266 132.866L181.009 214.922H217.149Z" fill="#EB2E29"/>
</g>
<path d="M392.524 267.769C380.526 267.769 369.913 265.308 360.684 260.385C351.454 255.309 344.302 248.234 339.226 239.158C334.304 230.083 331.843 219.469 331.843 207.318C331.843 188.552 337.303 173.785 348.224 163.018C359.145 152.25 374.066 146.867 392.986 146.867C408.06 146.867 420.366 150.405 429.902 157.48C439.593 164.556 445.515 174.631 447.668 187.706L412.828 194.858C411.752 188.09 409.444 182.937 405.907 179.4C402.369 175.862 397.754 174.093 392.063 174.093C384.987 174.093 379.45 176.938 375.45 182.63C371.451 188.321 369.451 196.166 369.451 206.164C369.451 217.085 371.451 225.545 375.45 231.544C379.45 237.389 385.064 240.312 392.294 240.312C397.985 240.312 402.599 238.466 406.137 234.774C409.675 231.083 411.982 225.776 413.059 218.854L447.668 226.468C445.669 239.081 439.67 249.157 429.672 256.694C419.673 264.077 407.291 267.769 392.524 267.769ZM469.043 265V97.7214H506.191V170.17C513.266 154.635 525.495 146.867 542.877 146.867C555.336 146.867 564.719 150.789 571.026 158.634C577.332 166.325 580.485 177.861 580.485 193.243V265H543.569V196.935C543.569 182.322 537.878 175.016 526.495 175.016C519.881 175.016 514.805 177.4 511.267 182.168C507.883 186.937 506.191 193.859 506.191 202.934V265H469.043ZM716.01 215.624H635.947C636.101 223.469 638.562 229.698 643.33 234.313C648.253 238.928 654.636 241.235 662.481 241.235C673.863 241.235 682.247 235.851 687.63 225.084L714.856 237.543C710.242 247.08 703.243 254.54 693.86 259.924C684.631 265.154 674.017 267.769 662.019 267.769C642.946 267.769 627.948 262.539 617.027 252.079C606.26 241.619 600.876 227.084 600.876 208.471C600.876 196.012 603.26 185.168 608.029 175.939C612.797 166.556 619.565 159.403 628.333 154.481C637.254 149.405 647.637 146.867 659.481 146.867C677.632 146.867 691.553 151.943 701.243 162.095C711.088 172.093 716.01 186.244 716.01 204.549V215.624ZM680.247 194.858V193.935C680.247 185.783 678.401 179.553 674.709 175.246C671.018 170.939 665.711 168.786 658.789 168.786C651.713 168.786 646.176 171.093 642.177 175.708C638.331 180.169 636.255 186.552 635.947 194.858H680.247ZM808.455 149.635V174.323H781.69V265H744.774V174.323H726.315V149.635H744.774V138.791C744.774 125.101 748.619 114.642 756.31 107.412C764.155 100.029 775.384 96.3371 789.996 96.3371C796.457 96.3371 802.61 97.0293 808.455 98.4136V124.947C804.148 124.178 800.379 123.794 797.149 123.794C792.073 123.794 788.228 125.178 785.613 127.947C782.998 130.562 781.69 134.484 781.69 139.714V149.635H808.455Z" fill="black"/>
<defs>
<clipPath id="clip0_2036_207746">
<rect width="248.092" height="248.092" fill="white" transform="translate(0.0683594 59.8643)"/>
</clipPath>
</defs>
</svg>
