<svg width="310" height="310" viewBox="0 0 310 310" fill="none" xmlns="http://www.w3.org/2000/svg">
<g clip-path="url(#clip0_3_1)">
<g clip-path="url(#clip1_3_1)">
<path fill-rule="evenodd" clip-rule="evenodd" d="M31.2573 80.7544C31.2573 53.4179 53.4179 31.2573 80.7544 31.2573H229.246C256.582 31.2573 278.743 53.4179 278.743 80.7544V196.248C278.743 223.584 256.582 245.745 229.246 245.745H187.617L161.209 275.925C159.642 277.716 157.379 278.743 155 278.743C152.621 278.743 150.358 277.716 148.791 275.925L122.383 245.745H80.7544C53.4179 245.745 31.2573 223.584 31.2573 196.248V80.7544ZM155 80.7544C158.851 80.7544 162.19 83.4194 163.044 87.1746L167.609 107.247C169.72 116.532 176.969 123.781 186.254 125.892L206.326 130.457C210.082 131.311 212.747 134.65 212.747 138.501C212.747 142.352 210.082 145.691 206.326 146.545L186.254 151.11C176.969 153.221 169.72 160.47 167.609 169.755L163.044 189.827C162.19 193.583 158.851 196.248 155 196.248C151.149 196.248 147.81 193.583 146.956 189.827L142.391 169.755C140.28 160.47 133.031 153.221 123.746 151.11L103.674 146.545C99.9184 145.691 97.2534 142.352 97.2534 138.501C97.2534 134.65 99.9184 131.311 103.674 130.457L123.746 125.892C133.031 123.781 140.28 116.532 142.391 107.247L146.956 87.1746C147.81 83.4194 151.149 80.7544 155 80.7544Z" fill="#EB2E29"/>
<path d="M70.9525 61.7101H260.998V216.519H70.9525V61.7101Z" fill="#EB2E29"/>
<path d="M124.219 183.567V171.767L143.668 166.741V101.403L122.69 103.589V89.8218L159.619 77.8033L172.075 82.3922V166.741L189.12 171.767V183.567H124.219Z" fill="white"/>
</g>
</g>
<defs>
<clipPath id="clip0_3_1">
<rect width="310" height="310" fill="white"/>
</clipPath>
<clipPath id="clip1_3_1">
<rect width="263.984" height="263.984" fill="white" transform="translate(23.0078 23.0078)"/>
</clipPath>
</defs>
</svg>
