<svg width="150" height="150" viewBox="0 0 150 150" fill="none" xmlns="http://www.w3.org/2000/svg">
<g clip-path="url(#clip0_3_2)">
<g clip-path="url(#clip1_3_2)">
<path fill-rule="evenodd" clip-rule="evenodd" d="M15.1245 39.0747C15.1245 25.8474 25.8474 15.1245 39.0747 15.1245H110.925C124.153 15.1245 134.875 25.8474 134.875 39.0747V94.9585C134.875 108.186 124.153 118.909 110.925 118.909H90.7822L78.0042 133.512C77.2461 134.379 76.151 134.875 75 134.875C73.849 134.875 72.7539 134.379 71.9959 133.512L59.2178 118.909H39.0747C25.8474 118.909 15.1245 108.186 15.1245 94.9585V39.0747ZM75 39.0747C76.8635 39.0747 78.4792 40.3642 78.8923 42.1812L81.1009 51.8938C82.1224 56.3863 85.6303 59.8942 90.1228 60.9157L99.8354 63.1243C101.652 63.5374 102.942 65.1531 102.942 67.0166C102.942 68.8801 101.652 70.4958 99.8354 70.9089L90.1228 73.1175C85.6303 74.139 82.1224 77.6469 81.1009 82.1394L78.8923 91.852C78.4792 93.669 76.8635 94.9585 75 94.9585C73.1365 94.9585 71.5208 93.669 71.1077 91.852L68.8991 82.1394C67.8776 77.6469 64.3697 74.139 59.8772 73.1175L50.1646 70.9089C48.3476 70.4958 47.0581 68.8801 47.0581 67.0166C47.0581 65.1531 48.3476 63.5374 50.1646 63.1243L59.8772 60.9157C64.3697 59.8942 67.8776 56.3863 68.8991 51.8938L71.1077 42.1812C71.5208 40.3642 73.1365 39.0747 75 39.0747Z" fill="#EB2E29"/>
<path d="M34.3318 29.8597H126.289V104.767H34.3318V29.8597Z" fill="#EB2E29"/>
<path d="M59.7513 89.1452V83.4355L69.1617 81.0035V49.3887L59.0111 50.4461V43.7848L76.8804 37.9693L82.9073 40.1898V81.0035L91.1546 83.4355V89.1452H59.7513Z" fill="white"/>
</g>
</g>
<defs>
<clipPath id="clip0_3_2">
<rect width="150" height="150" fill="white"/>
</clipPath>
<clipPath id="clip1_3_2">
<rect width="127.734" height="127.734" fill="white" transform="translate(11.1328 11.1328)"/>
</clipPath>
</defs>
</svg>
