<svg width="521" height="520" viewBox="0 0 521 520" fill="none" xmlns="http://www.w3.org/2000/svg">
<path d="M458.006 218.89C463.171 203.584 464.962 187.341 463.258 171.277C461.553 155.212 456.393 139.707 448.131 125.826C435.702 104.688 416.93 88.0025 394.482 78.1367C372.033 68.2709 347.047 65.7262 323.07 70.8638C312.142 58.7613 298.775 49.1091 283.849 42.542C268.923 35.9748 252.776 32.6414 236.47 32.7609C212 32.6092 188.108 40.1999 168.213 54.4475C148.318 68.695 133.438 88.8695 125.702 112.085C109.737 115.277 94.6331 121.828 81.3936 131.304C68.1541 140.78 57.0818 152.964 48.9116 167.047C36.5717 188.013 31.2994 212.391 33.8729 236.582C36.4465 260.774 46.7295 283.497 63.2042 301.398C58.0345 316.702 56.2375 332.943 57.9364 349.007C59.6353 365.072 64.79 380.578 73.0466 394.462C85.4761 415.6 104.247 432.285 126.696 442.151C149.145 452.017 174.131 454.561 198.107 449.424C209.039 461.539 222.416 471.2 237.355 477.768C252.293 484.336 268.455 487.662 284.773 487.527C309.256 487.681 333.161 480.084 353.064 465.823C372.966 451.563 387.846 431.371 395.573 408.138C411.539 404.948 426.644 398.397 439.883 388.921C453.123 379.445 464.195 367.26 472.364 353.176C484.696 332.213 489.964 307.842 487.39 283.657C484.817 259.473 474.538 236.756 458.071 218.858L458.038 218.89H458.006ZM284.773 457.805C264.613 457.855 245.065 450.883 229.486 438.087C230.168 437.73 231.403 437.048 232.182 436.561L323.98 384.262C326.275 382.984 328.185 381.113 329.51 378.844C330.836 376.576 331.529 373.994 331.516 371.367V243.707L370.301 265.796C370.507 265.895 370.684 266.046 370.815 266.234C370.946 266.422 371.026 266.64 371.048 266.868V372.568C370.983 419.604 332.393 457.707 284.773 457.805ZM99.1632 379.585C89.0561 362.389 85.4055 342.155 88.866 322.512L91.5946 324.103L183.36 376.402C188.005 379.098 193.754 379.098 198.432 376.402L310.499 312.572V356.749C310.514 356.979 310.471 357.21 310.375 357.42C310.278 357.629 310.131 357.812 309.947 357.951L217.175 410.801C175.856 434.287 123.071 420.319 99.1957 379.617L99.1632 379.585ZM75.0281 181.924C85.0979 164.643 101.015 151.422 119.952 144.568V252.283C119.888 257.61 122.779 262.548 127.456 265.179L239.523 329.008L200.706 351.097C200.516 351.223 200.299 351.301 200.072 351.323C199.846 351.346 199.617 351.313 199.407 351.227L106.634 298.312C96.866 292.799 88.2895 285.402 81.4025 276.549C74.5155 267.696 69.4551 257.563 66.5149 246.739C63.5747 235.915 62.8132 224.615 64.2746 213.494C65.736 202.373 69.3912 191.621 75.0281 181.924ZM393.689 255.109L281.654 191.279L320.472 169.191C320.661 169.065 320.879 168.987 321.105 168.965C321.332 168.942 321.56 168.975 321.771 169.061L414.576 221.911C424.361 227.42 432.952 234.82 439.85 243.681C446.747 252.542 451.812 262.687 454.751 273.525C457.689 284.363 458.442 295.677 456.965 306.809C455.489 317.94 451.812 328.667 446.15 338.364C436.08 355.612 420.163 368.833 401.225 375.719V267.972C401.238 265.357 400.553 262.786 399.239 260.524C397.926 258.263 396.032 256.393 393.754 255.109H393.689ZM432.279 197.776C431.387 197.224 430.488 196.683 429.583 196.152L337.785 143.854C335.493 142.534 332.894 141.839 330.249 141.839C327.604 141.839 325.005 142.534 322.713 143.854L210.646 207.716V163.539C210.646 163.051 210.873 162.629 211.23 162.337L304.003 109.519C345.321 86.001 398.139 100.001 421.95 140.8C432.019 158.016 435.69 178.156 432.279 197.776ZM189.629 276.548L150.812 254.459C150.605 254.36 150.428 254.209 150.298 254.021C150.167 253.833 150.086 253.615 150.064 253.387V147.687C150.097 100.586 188.785 62.4506 236.502 62.4831C256.64 62.4814 276.155 69.4609 291.724 82.2329C290.803 82.709 289.893 83.2072 288.995 83.7272L197.263 136.058C194.965 137.334 193.054 139.204 191.728 141.473C190.402 143.742 189.711 146.326 189.727 148.954L189.629 276.548ZM210.678 231.721L260.605 203.298L310.499 231.721V288.567L260.605 316.99L210.678 288.567V231.721Z" fill="black"/>
</svg>
